<?xml version="1.0" encoding="UTF-8"?>
<svg width="479px" height="149px" viewBox="0 0 479 149" version="1.1" xmlns="http://www.w3.org/2000/svg" xmlns:xlink="http://www.w3.org/1999/xlink">
    <!-- Generator: sketchtool 51.2 (57519) - http://www.bohemiancoding.com/sketch -->
    <title>canoe-logo</title>
    <desc>Created with sketchtool.</desc>
    <defs></defs>
    <g id="Symbols" stroke="none" stroke-width="1" fill="none" fill-rule="evenodd">
        <g id="canoe-logo" transform="translate(-123.000000, -54.000000)" fill="#FFFFFF" fill-rule="nonzero">
            <g transform="translate(123.000000, 54.000000)">
                <g id="Group" transform="translate(149.205406, 37.031283)">
                    <path d="M36.0474687,66.8166926 C20.3803684,66.8166926 9.58277226,53.0409407 9.58277226,37.7816463 C9.58277226,22.5223519 20.1686508,8.74660005 35.8357511,8.74660005 C48.9622406,8.74660005 55.5254853,17.2239858 55.5254853,17.2239858 L61.4535773,11.5017504 C61.4535773,11.5017504 52.5614393,0.481148922 35.8357511,0.481148922 C15.0874291,0.481148922 0.478916687,16.8001165 0.478916687,37.7816463 C0.478916687,58.7631761 15.2991467,75.0821437 35.8357511,75.0821437 C52.5614393,75.0821437 62.3004476,63.2138036 62.3004476,63.2138036 L56.3723556,57.2796336 C56.7957907,57.067699 49.1739581,66.8166926 36.0474687,66.8166926 Z" id="Shape"></path>
                    <path d="M95.3283887,1.54082214 L67.1699517,73.5986012 L76.2738073,73.5986012 L83.6839223,54.3125486 L114.594688,54.3125486 L122.004803,73.5986012 L131.108658,73.5986012 L103.161939,1.75275679 L95.3283887,1.75275679 L95.3283887,1.54082214 Z M87.0714034,46.0470974 L99.3510226,14.0449662 L111.630642,46.0470974 L87.0714034,46.0470974 Z" id="Shape"></path>
                    <polygon id="Shape" points="187.002097 59.1870454 148.469499 1.54082214 139.577361 1.54082214 139.577361 73.8105359 148.257782 73.8105359 148.257782 16.1643126 186.79038 73.8105359 195.682518 73.8105359 195.682518 1.54082214 187.002097 1.54082214"></polygon>
                    <path d="M241.413513,0.269214278 C220.665191,0.269214278 206.056679,16.5881819 206.056679,37.5697117 C206.056679,58.5512415 220.876909,74.8702091 241.413513,74.8702091 C262.161835,74.8702091 276.770347,58.5512415 276.770347,37.5697117 C276.982065,17.0120512 262.161835,0.269214278 241.413513,0.269214278 Z M241.413513,66.8166926 C225.746413,66.8166926 215.160534,53.2528754 215.160534,37.7816463 C215.160534,22.5223519 225.746413,8.74660005 241.413513,8.74660005 C257.080613,8.74660005 267.666492,22.3104173 267.666492,37.7816463 C267.666492,53.0409407 257.080613,66.8166926 241.413513,66.8166926 Z" id="Shape"></path>
                    <polygon id="Shape" points="295.824929 65.5450847 295.824929 40.7487313 326.100542 40.7487313 326.100542 32.6952149 295.824929 32.6952149 295.824929 9.80627327 328.641152 9.80627327 328.641152 1.54082214 287.356226 1.54082214 287.356226 73.8105359 329.276305 73.8105359 329.276305 65.5450847"></polygon>
                </g>
                <polygon id="Shape" points="66.0558823 86.4693349 66.0558823 148.354251 131.688329 112.325361 131.688329 86.4693349"></polygon>
                <polygon id="Shape" points="66.0558823 86.4693349 46.7895833 86.4693349 2.32889329 86.4693349 0.211717571 86.4693349 0.211717571 112.325361 66.0558823 148.354251"></polygon>
                <polygon id="Shape" points="65.8441647 0 0.423435143 36.4527588 0 72.4816484 46.5778657 72.4816484 46.5778657 55.5268768 65.8441647 42.5988635"></polygon>
                <polygon id="Shape" points="65.8441647 0 131.900047 36.4527588 131.476612 72.4816484 84.8987462 72.4816484 84.8987462 55.5268768 65.8441647 42.5988635"></polygon>
            </g>
        </g>
    </g>
</svg>