
		<svg xmlns="http://www.w3.org/2000/svg" xmlns:xlink="http://www.w3.org/1999/xlink" version="1.1" width="3123.415794243735" height="1215.6455733007886">
			
			<g transform="scale(6.170789712186744) translate(10, 10)">
				<defs id="SvgjsDefs1033"/><g id="SvgjsG1034" featureKey="WK2KLx" fill="#fff" transform="matrix(1,0,0,1,0,0)"/><g id="SvgjsG1035" featureKey="Z85eEj" fill="#fff" transform="matrix(1.6319444444444444,0,0,1.6319444444444444,6.840277777777779,6.840476989746094)"><g xmlns="http://www.w3.org/2000/svg" transform="translate(0,-952.36218)"><path style="" d="m 62.40625,33.310547 c 0.630477,-0.03456 1.297266,0.194483 1.884766,0.798828 l 14.769531,13.908203 0.002,0 c 0.222334,0.172997 0.413832,0.382325 0.566406,0.619141 0.01912,0.02723 0.03496,0.05461 0.05273,0.08203 0.03132,0.05358 0.06064,0.108303 0.08789,0.164062 0.01991,0.0364 0.0409,0.07275 0.05859,0.109376 0.001,0.0021 0.0029,0.0037 0.0039,0.0059 l 0,0.002 c 0.06796,0.141926 0.119888,0.284101 0.15625,0.427734 0.0011,0.004 0.0029,0.0077 0.0039,0.01172 6.39e-4,0.0026 0.0013,0.0052 0.002,0.0078 0.02941,0.120774 0.04782,0.24109 0.05664,0.361328 0.0062,0.06374 0.009,0.126935 0.0098,0.191406 -8.11e-4,0.06447 -0.0035,0.127665 -0.0098,0.191406 -0.0089,0.119851 -0.02732,0.238993 -0.05664,0.359375 -6.71e-4,0.0026 -0.0013,0.0052 -0.002,0.0078 -9.81e-4,0.004 -0.0029,0.0078 -0.0039,0.01172 -0.03637,0.143635 -0.08828,0.285807 -0.15625,0.427735 l 0,0.002 c -0.0016,0.0034 -0.0042,0.0064 -0.0059,0.0098 -0.01302,0.02682 -0.02876,0.05338 -0.04297,0.08008 -0.02949,0.06051 -0.06142,0.119802 -0.0957,0.177734 -0.017,0.02653 -0.02862,0.05373 -0.04687,0.08008 -0.151987,0.23666 -0.342817,0.445978 -0.564453,0.619141 l -14.78711,13.921875 c -2.350003,2.4193 -5.954398,-1.185156 -3.535156,-3.535156 L 71.220703,52.5 l -20.185547,0 c -2.197252,2.1998 -4.645172,4.639825 -6.765625,6.765625 -1.038746,1.04098 -2.747205,0.965008 -3.689453,-0.164063 L 29.832031,46.205078 24.267578,51.769531 c -2.358072,2.357556 -5.894014,-1.18034 -3.535156,-3.537109 l 7.5,-7.5 c 0.454154,-0.453577 1.065352,-0.71512 1.707031,-0.730469 0.762651,-0.01834 1.491948,0.312503 1.980469,0.898438 l 10.748047,12.896484 c 1.871898,-1.8712 3.819125,-3.8148 5.5625,-5.5625 C 48.699407,47.764339 49.336045,47.500127 50,47.5 l 21.222656,0 -10.46875,-9.855469 c -1.813038,-1.762492 -0.239087,-4.230317 1.652344,-4.333984 z" transform="translate(0,952.36218)" fill="#fff" fill-opacity="1" stroke-width="0"/><path style="color:;font-style:normal;font-variant:normal;font-weight:normal;font-stretch:normal;font-size:medium;line-height:normal;font-family:sans-serif;text-indent:0;text-align:start;text-decoration:none;text-decoration-line:none;text-decoration-style:solid;text-decoration-color:;letter-spacing:normal;word-spacing:normal;text-transform:none;direction:ltr;block-progression:tb;writing-mode:lr-tb;baseline-shift:baseline;text-anchor:start;white-space:normal;clip-rule:nonzero;display:inline;overflow:visible;visibility:visible;opacity:1;isolation:auto;mix-blend-mode:normal;color-interpolation:sRGB;color-interpolation-filters:linearRGB;solid-color:;solid-opacity:1;fill:#fff;fill-opacity:1;fill-rule:nonzero;stroke:none;stroke-width:5;stroke-linecap:round;stroke-linejoin:round;stroke-miterlimit:4;stroke-dasharray:none;stroke-dashoffset:0;stroke-opacity:1;color-rendering:auto;image-rendering:auto;shape-rendering:auto;text-rendering:auto;enable-background:accumulate" d="m 7.5,957.36215 a 2.50025,2.50025 0 0 0 -2.5,2.5 l 0,85.00005 a 2.50025,2.50025 0 0 0 2.5,2.5 l 85,0 a 2.50025,2.50025 0 0 0 2.5,-2.5 l 0,-85.00005 a 2.50025,2.50025 0 0 0 -2.5,-2.5 l -85,0 z m 2.5,5 80,0 0,80.00005 -80,0 0,-80.00005 z"/></g></g><g id="SvgjsG1036" featureKey="TS8yo1" fill="#fff" transform="matrix(8,0,0,8,166.83064651489258,-49.57792663574219)"><path d="M12.678 10.441 c0.11864 0 0.20356 0.067631 0.20356 0.18627 l0 13.186 c0 0.11881 -0.084746 0.18644 -0.20339 0.18644 l-0.35593 0 c-0.25441 0 -0.49169 -0.16933 -0.81373 -0.52525 l-8.9153 -10.525 l0 10.831 c0 0.13559 -0.084746 0.22017 -0.22034 0.22017 l-0.88136 0 c-0.15254 0 -0.22034 -0.08458 -0.22034 -0.22017 l0 -13.136 c0 -0.11864 0.067797 -0.20339 0.20339 -0.20339 l0.55932 0 c0.11864 0 0.20339 0.050847 0.32203 0.18644 l9.2034 10.932 l0 -10.932 c0 -0.11864 0.067797 -0.18644 0.18644 -0.18644 l0.9322 0 z M22.135642372881357 24.11864 c3.8305 0 6.9492 -3.0337 6.9492 -6.8981 c0 -3.8475 -3.1186 -6.8983 -6.9492 -6.8983 c-3.8475 0 -6.9661 3.0508 -6.9661 6.8983 c0 3.8644 3.1186 6.8981 6.9661 6.8981 z M22.135642372881357 22.8307 c-3.0847 0 -5.6441 -2.5085 -5.6441 -5.6102 s2.5593 -5.6102 5.6441 -5.6102 c3.0846 0 5.61 2.5085 5.61 5.6102 s-2.5254 5.6102 -5.61 5.6102 z M30.949154915254237 21.729 l0.47441 -0.55932 c0.15238 -0.15254 0.30492 -0.13559 0.44051 -0.033898 c0.32203 0.27119 1.6441 1.7119 3.5254 1.7119 c2.2373 0 3.2203 -1.2203 3.2203 -2.4237 c0 -1.7288 -1.9663 -2.1864 -3.7459 -2.8305 c-2.0169 -0.76271 -3.7458 -1.678 -3.7458 -3.7119 c0 -1.6949 1.2373 -3.5593 4.2712 -3.5593 c2.0847 0 3.5932 1.2542 4 1.6102 c0.13559 0.11864 0.18644 0.27119 0.084912 0.40678 l-0.44068 0.57627 c-0.10169 0.13559 -0.23729 0.16949 -0.38983 0.067797 c-0.33898 -0.25424 -1.5592 -1.3898 -3.2371 -1.3898 c-1.8985 0 -2.9663 1 -2.9663 2.288 c0 1.4915 1.5086 2.0169 3.4917 2.7288 c1.8136 0.67797 4 1.5932 4 3.8305 c0 1.9661 -1.8303 3.6608 -4.5253 3.6608 c-2.4746 0 -4 -1.61 -4.3898 -1.9998 c-0.11864 -0.11864 -0.22034 -0.22034 -0.067797 -0.37271 z"/></g>
			</g>
		</svg>
	