<?xml version="1.0" encoding="UTF-8" standalone="no"?>
<svg
   xmlns:dc="http://purl.org/dc/elements/1.1/"
   xmlns:cc="http://creativecommons.org/ns#"
   xmlns:rdf="http://www.w3.org/1999/02/22-rdf-syntax-ns#"
   xmlns:svg="http://www.w3.org/2000/svg"
   xmlns="http://www.w3.org/2000/svg"
   xmlns:sodipodi="http://sodipodi.sourceforge.net/DTD/sodipodi-0.dtd"
   xmlns:inkscape="http://www.inkscape.org/namespaces/inkscape"
   version="1.1"
   viewBox="0 0 104 44"
   id="svg10"
   sodipodi:docname="nos-pfeil-rechteckig-transparent-104-44.svg"
   width="104"
   height="44"
   inkscape:version="0.92.3 (2405546, 2018-03-11)">
  <defs
     id="defs14" />
  <sodipodi:namedview
     pagecolor="#ffffff"
     bordercolor="#666666"
     borderopacity="1"
     objecttolerance="10"
     gridtolerance="10"
     guidetolerance="10"
     inkscape:pageopacity="0"
     inkscape:pageshadow="2"
     inkscape:window-width="1920"
     inkscape:window-height="1017"
     id="namedview12"
     showgrid="false"
     inkscape:zoom="2.6074563"
     inkscape:cx="192.65318"
     inkscape:cy="84.406056"
     inkscape:window-x="-8"
     inkscape:window-y="-8"
     inkscape:window-maximized="1"
     inkscape:current-layer="g8" />
  <metadata
     id="metadata2">
    <rdf:RDF>
      <cc:Work
         rdf:about="">
        <dc:format>image/svg+xml</dc:format>
        <dc:type
           rdf:resource="http://purl.org/dc/dcmitype/StillImage" />
        <dc:title></dc:title>
      </cc:Work>
    </rdf:RDF>
  </metadata>
  <g
     transform="translate(-9.1444746,-148.68629)"
     id="g8"
     style="stroke-width:0.36996999">
    <path
       d="m 75.217881,190.42972 c -0.605022,-0.21548 -1.299028,-0.79506 -1.670535,-1.39505 -0.425075,-0.68654 -0.48147,-1.84969 -0.122796,-2.53194 0.136108,-0.25888 2.843253,-2.75937 6.967657,-6.43572 5.2867,-4.71258 6.736762,-6.06706 6.707134,-6.26462 l -0.03797,-0.25218 -12.72091,-0.0304 -12.720911,-0.0304 -4.540554,4.28778 c -2.497221,2.35831 -4.718663,4.37236 -4.936615,4.47566 -0.983474,0.46632 -2.297523,0.33755 -3.120974,-0.30582 -0.257583,-0.20125 -3.447389,-3.75839 -7.088551,-7.90446 -3.641162,-4.14608 -6.733698,-7.63266 -6.872302,-7.74758 -0.138683,-0.11495 -0.312942,-0.209 -0.38724,-0.209 -0.07431,0 -1.868156,1.6306 -3.98648,3.62346 -3.481785,3.27612 -3.908154,3.63829 -4.44486,3.77613 -0.719038,0.18488 -1.6343,0.0802 -2.206084,-0.25222 -1.234359,-0.71772 -1.846395,-2.00499 -1.542352,-3.24416 0.147646,-0.60168 0.301261,-0.76134 5.397039,-5.60902 3.605405,-3.4301 5.413726,-5.06735 5.785266,-5.23779 0.805298,-0.36984 2.190691,-0.28656 2.891542,0.17382 0.293653,0.1929 3.397943,3.62862 7.357586,8.14301 4.732625,5.39565 6.926794,7.8115 7.099112,7.81601 0.163287,0.005 1.53193,-1.20601 3.96877,-3.50949 2.045753,-1.93388 3.889765,-3.58635 4.0975,-3.67253 0.300846,-0.1244 3.193576,-0.16849 14.174377,-0.21601 13.676494,-0.0591 13.796709,-0.0618 13.831786,-0.29857 0.03375,-0.22784 -1.916208,-2.01336 -11.404685,-10.44265 -1.055841,-0.93801 -2.048034,-1.90109 -2.204891,-2.14019 -0.365955,-0.5578 -0.397729,-1.89689 -0.05918,-2.49297 0.281937,-0.4964 0.988038,-1.1648 1.508398,-1.42781 0.589254,-0.29787 1.909057,-0.28596 2.512238,0.0226 0.421057,0.21545 2.958939,2.44859 13.455477,11.83975 1.836383,1.643 4.119976,3.68125 5.074538,4.52956 1.079169,0.95886 1.829845,1.72649 1.98442,2.02908 0.32028,0.62714 0.333841,1.78451 0.0281,2.39884 -0.150527,0.30245 -3.338787,3.22686 -10.047931,9.21633 -5.405213,4.82525 -10.013196,8.90773 -10.239662,9.07173 -0.32435,0.23473 -0.59283,0.30712 -1.259933,0.33974 -0.466282,0.0228 -1.017837,-0.0192 -1.225743,-0.0932 z"
       id="path6"
       inkscape:connector-curvature="0"
       style="fill:#588ffe;stroke-width:0.12266634" />
  </g>
</svg>
